<?xml version="1.0" standalone="no"?>
<!DOCTYPE svg PUBLIC "-//W3C//DTD SVG 20010904//EN"
 "http://www.w3.org/TR/2001/REC-SVG-20010904/DTD/svg10.dtd">
<svg version="1.0" xmlns="http://www.w3.org/2000/svg"
 width="512.000000pt" height="512.000000pt" viewBox="0 0 512.000000 512.000000"
 preserveAspectRatio="xMidYMid meet">
<metadata>
Created by potrace 1.11, written by Peter Selinger 2001-2013
</metadata>
<g transform="translate(0.000000,512.000000) scale(0.100000,-0.100000)"
fill="#000000" stroke="none">
<path d="M843 4564 c5 -9 -58 -12 -246 -12 -340 1 -339 1 -379 -36 -51 -47
-58 -73 -58 -217 0 -150 9 -182 66 -225 l37 -29 1612 -1 c887 0 1616 -4 1622
-7 6 -4 13 -4 16 0 4 3 307 6 675 7 l669 1 37 29 c57 43 66 75 65 223 -1 70
-4 138 -7 149 -12 39 -54 83 -90 95 -25 8 -248 12 -816 11 -569 0 -785 3 -795
12 -11 8 -13 8 -8 0 10 -16 -2372 -17 -2392 0 -11 8 -13 8 -8 0z"/>
<path d="M340 2375 c0 -1527 0 -1536 21 -1598 33 -100 129 -185 229 -202 19
-4 168 -7 330 -7 208 0 299 -3 309 -11 10 -8 13 -8 8 -1 -10 16 2372 17 2392
0 10 -7 13 -8 8 0 -5 8 113 11 431 11 374 0 445 2 492 16 79 23 143 78 182
157 l33 65 2 1552 3 1553 -155 0 -155 0 -2 -1517 -3 -1518 -1338 0 c-737 0
-1341 3 -1344 8 -2 4 -12 3 -21 -1 -9 -4 -262 -8 -562 -7 l-545 0 -3 1518 -2
1517 -155 0 -155 0 0 -1535z"/>
<path d="M850 3893 c-14 -9 -27 -18 -30 -20 -7 -6 -10 -242 -3 -275 13 -66
-119 -61 1726 -60 920 0 1682 1 1693 1 12 1 32 9 45 20 21 17 23 26 25 155 2
133 2 137 -23 166 l-25 30 -1692 0 c-1563 0 -1693 -1 -1716 -17z"/>
<path d="M871 3398 c-51 -14 -56 -29 -57 -179 -2 -136 -1 -139 23 -164 l26
-25 1677 0 c923 0 1691 3 1708 6 49 10 60 47 58 198 -1 121 -3 129 -25 147
-13 10 -35 19 -50 20 -152 5 -3338 2 -3360 -3z"/>
<path d="M864 2889 c-44 -16 -52 -42 -51 -172 0 -67 4 -132 8 -144 17 -46 40
-49 412 -48 235 1 347 -2 347 -10 0 -7 3 -7 8 1 10 14 784 14 794 0 5 -7 8 -8
8 -1 0 15 183 15 192 1 5 -8 8 -8 8 0 0 15 1182 15 1192 0 6 -8 8 -8 8 0 0 7
66 10 213 9 116 0 226 3 242 7 56 14 62 32 61 183 -1 135 -1 137 -28 160 l-26
22 -1684 0 c-925 0 -1693 -3 -1704 -8z"/>
</g>
</svg>
